<?xml version="1.0" encoding="UTF-8"?>
<mxfile host="app.diagrams.net" agent="Mozilla/5.0 (Windows NT 10.0; Win64; x64) AppleWebKit/537.36 (KHTML, like Gecko) Chrome/131.0.0.0 Safari/537.36" version="25.0.3">
  <diagram name="第 1 页" id="jdkRaBqIwZJ9tv1y6VcR">
    <mxGraphModel dx="1590" dy="930" grid="1" gridSize="10" guides="1" tooltips="1" connect="1" arrows="1" fold="1" page="1" pageScale="1" pageWidth="827" pageHeight="1169" math="0" shadow="0">
      <root>
        <mxCell id="0" />
        <mxCell id="1" parent="0" />
        <mxCell id="2" value="LXY" style="rounded=0;whiteSpace=wrap;html=1;fillColor=#d5e8d4;strokeColor=#82b366;" vertex="1" parent="1">
          <mxGeometry x="290" y="230" width="120" height="60" as="geometry" />
        </mxCell>
        <mxCell id="3" value="lxy" style="text;html=1;align=center;verticalAlign=middle;whiteSpace=wrap;rounded=0;" vertex="1" parent="1">
          <mxGeometry x="170" y="440" width="60" height="30" as="geometry" />
        </mxCell>
        <mxCell id="4" value="" style="rounded=1;whiteSpace=wrap;html=1;strokeColor=#97D077;fillColor=#99FFCC;" vertex="1" parent="1">
          <mxGeometry x="363" y="751" width="560" height="149" as="geometry" />
        </mxCell>
        <mxCell id="5" value="&lt;font style=&quot;font-size: 18px;&quot;&gt;深证通&lt;/font&gt;" style="rounded=1;whiteSpace=wrap;html=1;" vertex="1" parent="1">
          <mxGeometry x="788.5" y="2180" width="120" height="60" as="geometry" />
        </mxCell>
        <mxCell id="6" value="&lt;font style=&quot;font-size: 18px;&quot;&gt;寄送任务&lt;/font&gt;" style="rounded=1;whiteSpace=wrap;html=1;" vertex="1" parent="1">
          <mxGeometry x="488.5" y="2180" width="120" height="60" as="geometry" />
        </mxCell>
        <mxCell id="7" value="&lt;span style=&quot;font-size: 18px;&quot;&gt;邮件&lt;/span&gt;" style="rounded=1;whiteSpace=wrap;html=1;" vertex="1" parent="1">
          <mxGeometry x="788.5" y="2030" width="120" height="60" as="geometry" />
        </mxCell>
        <mxCell id="8" value="&lt;font style=&quot;font-size: 18px;&quot;&gt;寄送&lt;/font&gt;" style="rounded=1;whiteSpace=wrap;html=1;" vertex="1" parent="1">
          <mxGeometry x="191.5" y="2180" width="120" height="60" as="geometry" />
        </mxCell>
        <mxCell id="9" value="&lt;font style=&quot;font-size: 18px;&quot;&gt;生成&lt;/font&gt;" style="rounded=1;whiteSpace=wrap;html=1;" vertex="1" parent="1">
          <mxGeometry x="191.5" y="1690" width="120" height="60" as="geometry" />
        </mxCell>
        <mxCell id="10" value="&lt;font style=&quot;font-size: 18px;&quot;&gt;特殊调整的表&lt;/font&gt;" style="rounded=1;whiteSpace=wrap;html=1;" vertex="1" parent="1">
          <mxGeometry x="813" y="1329" width="120" height="60" as="geometry" />
        </mxCell>
        <mxCell id="11" value="&lt;span style=&quot;font-size: 18px;&quot;&gt;落地ctp可配置表&lt;/span&gt;" style="rounded=1;whiteSpace=wrap;html=1;" vertex="1" parent="1">
          <mxGeometry x="813" y="1030" width="120" height="60" as="geometry" />
        </mxCell>
        <mxCell id="12" value="&lt;font style=&quot;font-size: 18px;&quot;&gt;保留历史数据的表&lt;/font&gt;" style="rounded=1;whiteSpace=wrap;html=1;" vertex="1" parent="1">
          <mxGeometry x="813" y="1180" width="120" height="60" as="geometry" />
        </mxCell>
        <mxCell id="13" value="&lt;font style=&quot;font-size: 18px;&quot;&gt;抽取ctp/fvip/自建&lt;/font&gt;" style="rounded=1;whiteSpace=wrap;html=1;" vertex="1" parent="1">
          <mxGeometry x="503" y="1180" width="120" height="60" as="geometry" />
        </mxCell>
        <mxCell id="14" value="&lt;font style=&quot;font-size: 18px;&quot;&gt;抽取&lt;/font&gt;" style="rounded=1;whiteSpace=wrap;html=1;" vertex="1" parent="1">
          <mxGeometry x="193" y="1180" width="120" height="60" as="geometry" />
        </mxCell>
        <mxCell id="15" value="&lt;font style=&quot;font-size: 18px;&quot;&gt;配置管理&lt;/font&gt;" style="rounded=1;whiteSpace=wrap;html=1;" vertex="1" parent="1">
          <mxGeometry x="193" y="530" width="120" height="60" as="geometry" />
        </mxCell>
        <mxCell id="16" value="&lt;font style=&quot;font-size: 18px;&quot;&gt;寄送模板&lt;/font&gt;" style="rounded=1;whiteSpace=wrap;html=1;" vertex="1" parent="1">
          <mxGeometry x="493" y="660" width="120" height="60" as="geometry" />
        </mxCell>
        <mxCell id="17" value="&lt;font style=&quot;font-size: 18px;&quot;&gt;寄送组&lt;/font&gt;" style="rounded=1;whiteSpace=wrap;html=1;" vertex="1" parent="1">
          <mxGeometry x="493" y="530" width="120" height="60" as="geometry" />
        </mxCell>
        <mxCell id="18" value="&lt;font style=&quot;font-size: 18px;&quot;&gt;账单模板&lt;/font&gt;" style="rounded=1;whiteSpace=wrap;html=1;" vertex="1" parent="1">
          <mxGeometry x="493" y="400" width="120" height="60" as="geometry" />
        </mxCell>
        <mxCell id="19" value="&lt;font style=&quot;font-size: 18px;&quot;&gt;账单组&lt;/font&gt;" style="rounded=1;whiteSpace=wrap;html=1;" vertex="1" parent="1">
          <mxGeometry x="493" y="270" width="120" height="60" as="geometry" />
        </mxCell>
        <mxCell id="20" value="&lt;font style=&quot;font-size: 18px;&quot;&gt;定制模板&lt;/font&gt;" style="rounded=1;whiteSpace=wrap;html=1;" vertex="1" parent="1">
          <mxGeometry x="490" y="790" width="120" height="60" as="geometry" />
        </mxCell>
        <mxCell id="21" value="" style="endArrow=classic;html=1;rounded=0;" edge="1" parent="1">
          <mxGeometry width="50" height="50" relative="1" as="geometry">
            <mxPoint x="333" y="560" as="sourcePoint" />
            <mxPoint x="473" y="300" as="targetPoint" />
          </mxGeometry>
        </mxCell>
        <mxCell id="22" value="" style="endArrow=classic;html=1;rounded=0;" edge="1" parent="1">
          <mxGeometry width="50" height="50" relative="1" as="geometry">
            <mxPoint x="333" y="560" as="sourcePoint" />
            <mxPoint x="473" y="430" as="targetPoint" />
          </mxGeometry>
        </mxCell>
        <mxCell id="23" value="" style="endArrow=classic;html=1;rounded=0;" edge="1" parent="1">
          <mxGeometry width="50" height="50" relative="1" as="geometry">
            <mxPoint x="343" y="560" as="sourcePoint" />
            <mxPoint x="473" y="560" as="targetPoint" />
          </mxGeometry>
        </mxCell>
        <mxCell id="24" value="" style="endArrow=classic;html=1;rounded=0;" edge="1" parent="1">
          <mxGeometry width="50" height="50" relative="1" as="geometry">
            <mxPoint x="333" y="560" as="sourcePoint" />
            <mxPoint x="473" y="690" as="targetPoint" />
          </mxGeometry>
        </mxCell>
        <mxCell id="25" value="" style="endArrow=classic;html=1;rounded=0;" edge="1" parent="1">
          <mxGeometry width="50" height="50" relative="1" as="geometry">
            <mxPoint x="333" y="560" as="sourcePoint" />
            <mxPoint x="483" y="820" as="targetPoint" />
          </mxGeometry>
        </mxCell>
        <mxCell id="26" value="&lt;font style=&quot;font-size: 18px;&quot;&gt;结算属性，账号，文件模板&lt;/font&gt;" style="text;html=1;strokeColor=none;fillColor=none;align=center;verticalAlign=middle;whiteSpace=wrap;rounded=0;" vertex="1" parent="1">
          <mxGeometry x="633" y="290.5" width="230" height="19" as="geometry" />
        </mxCell>
        <mxCell id="27" value="&lt;font style=&quot;font-size: 18px;&quot;&gt;账单模板配置&lt;/font&gt;" style="text;html=1;strokeColor=none;fillColor=none;align=center;verticalAlign=middle;whiteSpace=wrap;rounded=0;" vertex="1" parent="1">
          <mxGeometry x="610" y="400" width="230" height="19" as="geometry" />
        </mxCell>
        <mxCell id="28" value="&lt;font style=&quot;font-size: 18px;&quot;&gt;账单组、发送方式&lt;/font&gt;" style="text;html=1;strokeColor=none;fillColor=none;align=center;verticalAlign=middle;whiteSpace=wrap;rounded=0;" vertex="1" parent="1">
          <mxGeometry x="623" y="550.5" width="230" height="19" as="geometry" />
        </mxCell>
        <mxCell id="29" value="&lt;font style=&quot;font-size: 18px;&quot;&gt;寄送模板配置&lt;/font&gt;" style="text;html=1;strokeColor=none;fillColor=none;align=center;verticalAlign=middle;whiteSpace=wrap;rounded=0;" vertex="1" parent="1">
          <mxGeometry x="623" y="680.5" width="230" height="19" as="geometry" />
        </mxCell>
        <mxCell id="30" style="edgeStyle=orthogonalEdgeStyle;rounded=0;orthogonalLoop=1;jettySize=auto;html=1;exitX=0.5;exitY=1;exitDx=0;exitDy=0;" edge="1" source="29" target="29" parent="1">
          <mxGeometry relative="1" as="geometry" />
        </mxCell>
        <mxCell id="31" value="&lt;font style=&quot;font-size: 18px;&quot;&gt;ctp可配置化页面&lt;/font&gt;" style="text;html=1;strokeColor=none;fillColor=none;align=center;verticalAlign=middle;whiteSpace=wrap;rounded=0;" vertex="1" parent="1">
          <mxGeometry x="623" y="810.5" width="230" height="19" as="geometry" />
        </mxCell>
        <mxCell id="32" value="" style="endArrow=classic;html=1;rounded=0;" edge="1" parent="1">
          <mxGeometry width="50" height="50" relative="1" as="geometry">
            <mxPoint x="253" y="740" as="sourcePoint" />
            <mxPoint x="253" y="1010" as="targetPoint" />
          </mxGeometry>
        </mxCell>
        <mxCell id="33" value="&lt;font style=&quot;font-size: 18px;&quot;&gt;分四个批次： 快结/主席/自建/恒生&lt;/font&gt;" style="text;html=1;strokeColor=none;fillColor=none;align=center;verticalAlign=middle;whiteSpace=wrap;rounded=0;" vertex="1" parent="1">
          <mxGeometry x="153" y="1270" width="230" height="19" as="geometry" />
        </mxCell>
        <mxCell id="34" value="&lt;font style=&quot;font-size: 18px;&quot;&gt;支持时间范围选择&lt;/font&gt;" style="text;html=1;strokeColor=none;fillColor=none;align=center;verticalAlign=middle;whiteSpace=wrap;rounded=0;" vertex="1" parent="1">
          <mxGeometry x="153" y="1310" width="230" height="19" as="geometry" />
        </mxCell>
        <mxCell id="35" value="" style="endArrow=classic;html=1;rounded=0;" edge="1" parent="1">
          <mxGeometry width="50" height="50" relative="1" as="geometry">
            <mxPoint x="343" y="1209.41" as="sourcePoint" />
            <mxPoint x="473" y="1209.41" as="targetPoint" />
          </mxGeometry>
        </mxCell>
        <mxCell id="36" value="&lt;font style=&quot;font-size: 18px;&quot;&gt;原始数据&lt;/font&gt;" style="text;html=1;strokeColor=none;fillColor=none;align=center;verticalAlign=middle;whiteSpace=wrap;rounded=0;" vertex="1" parent="1">
          <mxGeometry x="448" y="1260" width="230" height="19" as="geometry" />
        </mxCell>
        <mxCell id="37" value="" style="endArrow=classic;html=1;rounded=0;" edge="1" parent="1">
          <mxGeometry width="50" height="50" relative="1" as="geometry">
            <mxPoint x="643" y="1210" as="sourcePoint" />
            <mxPoint x="803" y="1360" as="targetPoint" />
          </mxGeometry>
        </mxCell>
        <mxCell id="38" value="" style="endArrow=classic;html=1;rounded=0;" edge="1" parent="1">
          <mxGeometry width="50" height="50" relative="1" as="geometry">
            <mxPoint x="643" y="1204.5" as="sourcePoint" />
            <mxPoint x="800" y="1205" as="targetPoint" />
          </mxGeometry>
        </mxCell>
        <mxCell id="39" value="" style="endArrow=classic;html=1;rounded=0;" edge="1" parent="1">
          <mxGeometry width="50" height="50" relative="1" as="geometry">
            <mxPoint x="643" y="1200" as="sourcePoint" />
            <mxPoint x="793" y="1060" as="targetPoint" />
          </mxGeometry>
        </mxCell>
        <mxCell id="40" value="&lt;font style=&quot;font-size: 18px;&quot;&gt;如：历史成交&lt;/font&gt;" style="text;html=1;strokeColor=none;fillColor=none;align=center;verticalAlign=middle;whiteSpace=wrap;rounded=0;" vertex="1" parent="1">
          <mxGeometry x="753" y="1251" width="230" height="19" as="geometry" />
        </mxCell>
        <mxCell id="41" value="&lt;font style=&quot;font-size: 18px;&quot;&gt;如：调整保证金&lt;/font&gt;" style="text;html=1;strokeColor=none;fillColor=none;align=center;verticalAlign=middle;whiteSpace=wrap;rounded=0;" vertex="1" parent="1">
          <mxGeometry x="758" y="1410" width="230" height="19" as="geometry" />
        </mxCell>
        <mxCell id="42" value="&lt;font style=&quot;font-size: 18px;&quot;&gt;并行&lt;/font&gt;" style="text;html=1;strokeColor=none;fillColor=none;align=center;verticalAlign=middle;whiteSpace=wrap;rounded=0;" vertex="1" parent="1">
          <mxGeometry x="663" y="1100" width="70" height="19" as="geometry" />
        </mxCell>
        <mxCell id="43" value="&lt;font style=&quot;font-size: 18px;&quot;&gt;并行&lt;/font&gt;" style="text;html=1;strokeColor=none;fillColor=none;align=center;verticalAlign=middle;whiteSpace=wrap;rounded=0;" vertex="1" parent="1">
          <mxGeometry x="688" y="1180" width="70" height="19" as="geometry" />
        </mxCell>
        <mxCell id="44" value="&lt;font style=&quot;font-size: 18px;&quot;&gt;并行&lt;/font&gt;" style="text;html=1;strokeColor=none;fillColor=none;align=center;verticalAlign=middle;whiteSpace=wrap;rounded=0;" vertex="1" parent="1">
          <mxGeometry x="703" y="1251" width="70" height="19" as="geometry" />
        </mxCell>
        <mxCell id="45" value="" style="endArrow=classic;html=1;rounded=0;" edge="1" parent="1">
          <mxGeometry width="50" height="50" relative="1" as="geometry">
            <mxPoint x="252.29000000000002" y="1420" as="sourcePoint" />
            <mxPoint x="253" y="1590" as="targetPoint" />
          </mxGeometry>
        </mxCell>
        <mxCell id="46" value="&lt;font style=&quot;font-size: 18px;&quot;&gt;个性化功能点&lt;/font&gt;" style="rounded=1;whiteSpace=wrap;html=1;" vertex="1" parent="1">
          <mxGeometry x="501.5" y="1600" width="120" height="60" as="geometry" />
        </mxCell>
        <mxCell id="47" value="&lt;font style=&quot;font-size: 18px;&quot;&gt;获取标准账单&lt;/font&gt;" style="rounded=1;whiteSpace=wrap;html=1;" vertex="1" parent="1">
          <mxGeometry x="501.5" y="1790" width="120" height="60" as="geometry" />
        </mxCell>
        <mxCell id="48" value="" style="endArrow=classic;html=1;rounded=0;" edge="1" parent="1">
          <mxGeometry width="50" height="50" relative="1" as="geometry">
            <mxPoint x="351.5" y="1730" as="sourcePoint" />
            <mxPoint x="481.5" y="1820" as="targetPoint" />
          </mxGeometry>
        </mxCell>
        <mxCell id="49" value="" style="endArrow=classic;html=1;rounded=0;" edge="1" parent="1">
          <mxGeometry width="50" height="50" relative="1" as="geometry">
            <mxPoint x="351.5" y="1710" as="sourcePoint" />
            <mxPoint x="481.5" y="1630" as="targetPoint" />
          </mxGeometry>
        </mxCell>
        <mxCell id="50" value="&lt;font style=&quot;font-size: 18px;&quot;&gt;发送&lt;/font&gt;" style="text;html=1;strokeColor=none;fillColor=none;align=center;verticalAlign=middle;whiteSpace=wrap;rounded=0;" vertex="1" parent="1">
          <mxGeometry x="648.5" y="2100" width="70" height="19" as="geometry" />
        </mxCell>
        <mxCell id="51" value="&lt;font style=&quot;font-size: 18px;&quot;&gt;并行&lt;/font&gt;" style="text;html=1;strokeColor=none;fillColor=none;align=center;verticalAlign=middle;whiteSpace=wrap;rounded=0;" vertex="1" parent="1">
          <mxGeometry x="401.5" y="1750" width="70" height="19" as="geometry" />
        </mxCell>
        <mxCell id="52" value="&lt;font style=&quot;font-size: 18px;&quot;&gt;调用&lt;/font&gt;" style="text;html=1;strokeColor=none;fillColor=none;align=center;verticalAlign=middle;whiteSpace=wrap;rounded=0;" vertex="1" parent="1">
          <mxGeometry x="371.5" y="1641" width="70" height="19" as="geometry" />
        </mxCell>
        <mxCell id="53" value="" style="endArrow=classic;html=1;rounded=0;" edge="1" parent="1">
          <mxGeometry width="50" height="50" relative="1" as="geometry">
            <mxPoint x="250.67000000000002" y="1910" as="sourcePoint" />
            <mxPoint x="250.5" y="2080" as="targetPoint" />
          </mxGeometry>
        </mxCell>
        <mxCell id="54" value="&lt;font style=&quot;font-size: 18px;&quot;&gt;sftp&lt;/font&gt;" style="rounded=1;whiteSpace=wrap;html=1;" vertex="1" parent="1">
          <mxGeometry x="788.5" y="2330" width="120" height="60" as="geometry" />
        </mxCell>
        <mxCell id="55" value="" style="endArrow=classic;html=1;rounded=0;" edge="1" parent="1">
          <mxGeometry width="50" height="50" relative="1" as="geometry">
            <mxPoint x="346.5" y="2210" as="sourcePoint" />
            <mxPoint x="468.5" y="2210" as="targetPoint" />
          </mxGeometry>
        </mxCell>
        <mxCell id="56" value="&lt;font style=&quot;font-size: 18px;&quot;&gt;生成&lt;/font&gt;" style="text;html=1;strokeColor=none;fillColor=none;align=center;verticalAlign=middle;whiteSpace=wrap;rounded=0;" vertex="1" parent="1">
          <mxGeometry x="376.5" y="2180" width="70" height="19" as="geometry" />
        </mxCell>
        <mxCell id="57" value="" style="endArrow=classic;html=1;rounded=0;" edge="1" parent="1">
          <mxGeometry width="50" height="50" relative="1" as="geometry">
            <mxPoint x="626.5" y="2199" as="sourcePoint" />
            <mxPoint x="778.5" y="2060" as="targetPoint" />
          </mxGeometry>
        </mxCell>
        <mxCell id="58" value="" style="endArrow=classic;html=1;rounded=0;" edge="1" parent="1">
          <mxGeometry width="50" height="50" relative="1" as="geometry">
            <mxPoint x="636.5" y="2209" as="sourcePoint" />
            <mxPoint x="778.5" y="2209" as="targetPoint" />
          </mxGeometry>
        </mxCell>
        <mxCell id="59" value="" style="endArrow=classic;html=1;rounded=0;" edge="1" parent="1">
          <mxGeometry width="50" height="50" relative="1" as="geometry">
            <mxPoint x="630" y="2219" as="sourcePoint" />
            <mxPoint x="778.5" y="2360" as="targetPoint" />
          </mxGeometry>
        </mxCell>
        <mxCell id="60" value="&lt;font style=&quot;font-size: 18px;&quot;&gt;发送&lt;/font&gt;" style="text;html=1;strokeColor=none;fillColor=none;align=center;verticalAlign=middle;whiteSpace=wrap;rounded=0;" vertex="1" parent="1">
          <mxGeometry x="686.5" y="2180" width="70" height="19" as="geometry" />
        </mxCell>
        <mxCell id="61" value="&lt;font style=&quot;font-size: 18px;&quot;&gt;发送&lt;/font&gt;" style="text;html=1;strokeColor=none;fillColor=none;align=center;verticalAlign=middle;whiteSpace=wrap;rounded=0;" vertex="1" parent="1">
          <mxGeometry x="701.5" y="2270" width="70" height="19" as="geometry" />
        </mxCell>
        <mxCell id="62" value="" style="endArrow=classic;html=1;rounded=0;" edge="1" parent="1">
          <mxGeometry width="50" height="50" relative="1" as="geometry">
            <mxPoint x="970" y="1358.5" as="sourcePoint" />
            <mxPoint x="1100" y="1358.5" as="targetPoint" />
          </mxGeometry>
        </mxCell>
        <mxCell id="63" value="&lt;span style=&quot;font-size: 18px;&quot;&gt;抽取验证&lt;/span&gt;" style="rounded=1;whiteSpace=wrap;html=1;" vertex="1" parent="1">
          <mxGeometry x="1140" y="1329" width="120" height="60" as="geometry" />
        </mxCell>
        <mxCell id="64" value="" style="endArrow=classic;html=1;rounded=0;" edge="1" parent="1">
          <mxGeometry width="50" height="50" relative="1" as="geometry">
            <mxPoint x="970" y="1059.5" as="sourcePoint" />
            <mxPoint x="1100" y="1059.5" as="targetPoint" />
          </mxGeometry>
        </mxCell>
        <mxCell id="65" value="&lt;span style=&quot;font-size: 18px;&quot;&gt;抽取验证&lt;/span&gt;" style="rounded=1;whiteSpace=wrap;html=1;" vertex="1" parent="1">
          <mxGeometry x="1140" y="1030" width="120" height="60" as="geometry" />
        </mxCell>
        <mxCell id="66" value="" style="endArrow=classic;html=1;rounded=0;" edge="1" parent="1">
          <mxGeometry width="50" height="50" relative="1" as="geometry">
            <mxPoint x="970" y="1209.5" as="sourcePoint" />
            <mxPoint x="1100" y="1209.5" as="targetPoint" />
          </mxGeometry>
        </mxCell>
        <mxCell id="67" value="&lt;span style=&quot;font-size: 18px;&quot;&gt;抽取验证&lt;/span&gt;" style="rounded=1;whiteSpace=wrap;html=1;" vertex="1" parent="1">
          <mxGeometry x="1140" y="1180" width="120" height="60" as="geometry" />
        </mxCell>
        <mxCell id="68" value="" style="curved=1;endArrow=classic;html=1;rounded=0;" edge="1" parent="1">
          <mxGeometry width="50" height="50" relative="1" as="geometry">
            <mxPoint x="630" y="430" as="sourcePoint" />
            <mxPoint x="945.5" y="810" as="targetPoint" />
            <Array as="points">
              <mxPoint x="1036" y="460" />
              <mxPoint x="1035.5" y="680" />
              <mxPoint x="1025.5" y="770" />
            </Array>
          </mxGeometry>
        </mxCell>
        <mxCell id="69" value="&lt;font style=&quot;font-size: 18px;&quot;&gt;引用&lt;/font&gt;" style="text;html=1;strokeColor=none;fillColor=none;align=center;verticalAlign=middle;whiteSpace=wrap;rounded=0;" vertex="1" parent="1">
          <mxGeometry x="1030" y="610" width="80" height="20" as="geometry" />
        </mxCell>
        <mxCell id="70" value="&lt;font style=&quot;font-size: 18px;&quot;&gt;并行&lt;/font&gt;" style="text;html=1;strokeColor=none;fillColor=none;align=center;verticalAlign=middle;whiteSpace=wrap;rounded=0;" vertex="1" parent="1">
          <mxGeometry x="401.5" y="1671" width="70" height="19" as="geometry" />
        </mxCell>
        <mxCell id="71" value="&lt;font style=&quot;font-size: 18px;&quot;&gt;通用校验&lt;/font&gt;" style="rounded=1;whiteSpace=wrap;html=1;" vertex="1" parent="1">
          <mxGeometry x="803" y="1600" width="120" height="60" as="geometry" />
        </mxCell>
        <mxCell id="72" value="" style="endArrow=classic;html=1;rounded=0;" edge="1" parent="1">
          <mxGeometry width="50" height="50" relative="1" as="geometry">
            <mxPoint x="648.5" y="1629.5" as="sourcePoint" />
            <mxPoint x="778.5" y="1629.5" as="targetPoint" />
          </mxGeometry>
        </mxCell>
        <mxCell id="73" value="&lt;font style=&quot;font-size: 18px;&quot;&gt;个性化校验&lt;/font&gt;" style="rounded=1;whiteSpace=wrap;html=1;" vertex="1" parent="1">
          <mxGeometry x="1120.5" y="1600" width="120" height="60" as="geometry" />
        </mxCell>
        <mxCell id="74" value="" style="endArrow=classic;html=1;rounded=0;" edge="1" parent="1">
          <mxGeometry width="50" height="50" relative="1" as="geometry">
            <mxPoint x="966" y="1629.5" as="sourcePoint" />
            <mxPoint x="1096" y="1629.5" as="targetPoint" />
          </mxGeometry>
        </mxCell>
        <mxCell id="75" value="&lt;font style=&quot;font-size: 18px;&quot;&gt;如有&lt;/font&gt;" style="text;html=1;strokeColor=none;fillColor=none;align=center;verticalAlign=middle;whiteSpace=wrap;rounded=0;" vertex="1" parent="1">
          <mxGeometry x="933" y="1600" width="230" height="19" as="geometry" />
        </mxCell>
      </root>
    </mxGraphModel>
  </diagram>
</mxfile>
